<svg xmlns="http://www.w3.org/2000/svg">
   <symbol id="kitchen">
      <path class='www'
         d="M16.9918 1.24699C17.0572 1.63253 18.3077 8.99892 18.3077 11.8126C18.3077 16.1028 16.0356 19.1626 12.6764 20.393L13.7308 39.9246C13.788 41.0484 12.8971 42 11.7692 42H6.53846C5.41875 42 4.51971 41.0566 4.57692 39.9246L5.63125 20.393C2.26394 19.1626 0 16.0946 0 11.8126C0 8.99072 1.25048 1.63253 1.31587 1.24699C1.5774 -0.418241 5.01827 -0.44285 5.23077 1.33722V12.92C5.33702 13.1989 6.4649 13.1825 6.53846 12.92C6.65288 10.8446 7.18413 1.50129 7.19231 1.288C7.46202 -0.418241 10.8457 -0.418241 11.1072 1.288C11.1236 1.50949 11.6466 10.8446 11.7611 12.92C11.8346 13.1825 12.9707 13.1989 13.0687 12.92V1.33722C13.2812 -0.434647 16.7303 -0.418241 16.9918 1.24699ZM26.7341 24.6833L25.5082 39.8672C25.4101 41.0156 26.3173 42 27.4615 42H32.0385C33.1255 42 34 41.1223 34 40.0313V1.96886C34 0.886052 33.1255 0.000117243 32.0385 0.000117243C25.2957 0.000117243 13.9433 14.6427 26.7341 24.6833Z" />
   </symbol>
   <symbol id="teste">
      <path
         d="M11.7904 0.0113492C10.5909 -0.101468 9.47466 0.636295 9.16813 1.80157L8.06891 5.97802C21.9943 6.3855 31.4145 15.6721 32.0038 29.5063L36.2299 28.3351C37.3967 28.0114 38.1218 26.8744 37.9831 25.6705C36.4333 12.2527 25.292 1.28573 11.7904 0.0113492ZM7.45065 8.32417L0.0396544 36.4905C-0.0142212 36.6951 -0.0131819 36.9103 0.0426672 37.1144C0.0985164 37.3185 0.2072 37.5043 0.357755 37.6529C0.50831 37.8016 0.69541 37.908 0.900183 37.9612C1.10496 38.0145 1.32016 38.0128 1.52408 37.9564L29.6539 30.1557C29.337 17.1751 20.5188 8.47261 7.45065 8.32714V8.32417ZM9.49916 30.8764C9.02941 30.8764 8.57021 30.7371 8.17963 30.4761C7.78905 30.2151 7.48463 29.8442 7.30487 29.4102C7.1251 28.9762 7.07807 28.4987 7.16971 28.038C7.26135 27.5772 7.48756 27.154 7.81972 26.8219C8.15188 26.4897 8.57508 26.2635 9.0358 26.1719C9.49652 26.0802 9.97407 26.1272 10.4081 26.307C10.842 26.4868 11.213 26.7912 11.474 27.1818C11.7349 27.5724 11.8742 28.0316 11.8742 28.5013C11.8742 29.1312 11.624 29.7353 11.1786 30.1807C10.7332 30.6262 10.1291 30.8764 9.49916 30.8764ZM13.0618 19.5947C12.592 19.5947 12.1328 19.4554 11.7423 19.1944C11.3517 18.9335 11.0473 18.5625 10.8675 18.1285C10.6877 17.6945 10.6407 17.217 10.7323 16.7563C10.824 16.2955 11.0502 15.8723 11.3823 15.5402C11.7145 15.208 12.1377 14.9818 12.5984 14.8902C13.0591 14.7985 13.5367 14.8456 13.9707 15.0253C14.4047 15.2051 14.7756 15.5095 15.0366 15.9001C15.2976 16.2907 15.4369 16.7499 15.4369 17.2196C15.4369 17.8495 15.1866 18.4537 14.7412 18.8991C14.2958 19.3445 13.6917 19.5947 13.0618 19.5947ZM20.7808 27.3138C20.311 27.3138 19.8518 27.1745 19.4613 26.9135C19.0707 26.6525 18.7663 26.2816 18.5865 25.8476C18.4067 25.4136 18.3597 24.936 18.4513 24.4753C18.543 24.0146 18.7692 23.5914 19.1014 23.2592C19.4335 22.9271 19.8567 22.7009 20.3174 22.6092C20.7782 22.5176 21.2557 22.5646 21.6897 22.7444C22.1237 22.9241 22.4946 23.2286 22.7556 23.6191C23.0166 24.0097 23.1559 24.4689 23.1559 24.9387C23.1559 25.5686 22.9056 26.1727 22.4602 26.6181C22.0148 27.0635 21.4107 27.3138 20.7808 27.3138Z" />
   </symbol>
   <symbol id="recipes">
      <path
         d="M20.6429 10.3594C21.3107 10.3594 21.8571 9.81094 21.8571 9.14062C21.8571 8.47031 21.3107 7.92188 20.6429 7.92188C19.975 7.92188 19.4286 8.47031 19.4286 9.14062C19.4286 9.81094 19.975 10.3594 20.6429 10.3594ZM34 27.3V1.95C34 0.73125 33.2714 0 32.0571 0H7.28571C3.15714 0 0 3.16875 0 7.3125V31.6875C0 35.8312 3.15714 39 7.28571 39H32.0571C33.0286 39 34 38.2687 34 37.05V35.8312C34 35.3438 33.7571 34.8563 33.2714 34.3688C33.0286 33.15 33.0286 29.7375 33.2714 28.7625C33.7571 28.5188 34 28.0312 34 27.3ZM18.2143 4.26562C21.5688 4.26562 24.2857 6.45176 24.2857 9.14062C24.2857 10.7326 23.3219 12.1266 21.8571 13.0178V14.0156C21.8571 14.6859 21.3107 15.2344 20.6429 15.2344H15.7857C15.1179 15.2344 14.5714 14.6859 14.5714 14.0156V13.0178C13.1067 12.1266 12.1429 10.7326 12.1429 9.14062C12.1429 6.45176 14.8598 4.26562 18.2143 4.26562ZM9.47143 17.0092L9.94955 15.8895C10.0786 15.5771 10.4353 15.44 10.7464 15.5695L18.2067 18.7764L25.6746 15.5695C25.9857 15.44 26.3424 15.5771 26.4714 15.8895L26.9496 17.0092C27.0786 17.3215 26.942 17.6795 26.6308 17.809L21.2955 20.1094L26.6308 22.4021C26.942 22.5316 27.0786 22.8896 26.9496 23.202L26.4714 24.3217C26.3424 24.634 25.9857 24.7711 25.6746 24.6416L18.2143 21.4348L10.754 24.6492C10.4429 24.7787 10.0862 24.6416 9.95714 24.3293L9.47902 23.2096C9.35 22.8973 9.48661 22.5393 9.79777 22.4098L15.1406 20.117L9.79018 17.809C9.47902 17.6795 9.34241 17.3215 9.47143 17.0092ZM28.9 34.125H7.28571C5.82857 34.125 4.85714 33.15 4.85714 31.6875C4.85714 30.225 6.07143 29.25 7.28571 29.25H28.9V34.125ZM15.7857 10.3594C16.4536 10.3594 17 9.81094 17 9.14062C17 8.47031 16.4536 7.92188 15.7857 7.92188C15.1179 7.92188 14.5714 8.47031 14.5714 9.14062C14.5714 9.81094 15.1179 10.3594 15.7857 10.3594Z" />
   </symbol>
   <symbol id="blog">
      <path
         d="M34.0361 9.70913L30.8846 12.8606C30.5633 13.1819 30.0437 13.1819 29.7224 12.8606L22.1342 5.27243C21.8129 4.95112 21.8129 4.43157 22.1342 4.11027L25.2857 0.958778C26.5641 -0.319593 28.6423 -0.319593 29.9275 0.958778L34.0361 5.06734C35.3213 6.34571 35.3213 8.42392 34.0361 9.70913ZM19.427 6.81741L1.47501 24.7693L0.0257252 33.0753C-0.172526 34.1964 0.805058 35.1672 1.9262 34.9758L10.2323 33.5196L28.1843 15.5678C28.5056 15.2465 28.5056 14.7269 28.1843 14.4056L20.596 6.81741C20.2679 6.49611 19.7483 6.49611 19.427 6.81741ZM8.48217 23.2311C8.10618 22.8552 8.10618 22.2536 8.48217 21.8776L19.01 11.3498C19.386 10.9738 19.9876 10.9738 20.3636 11.3498C20.7396 11.7258 20.7396 12.3274 20.3636 12.7034L9.83575 23.2311C9.45975 23.6071 8.85817 23.6071 8.48217 23.2311ZM6.01428 28.9804H9.29569V31.4619L4.8863 32.2344L2.76023 30.1084L3.53272 25.699H6.01428V28.9804Z" />
   </symbol>
   <symbol id="contact">
      <path
         d="M29.6111 11.4286C29.6111 5.11429 22.9842 0 14.8056 0C6.62691 0 0 5.11429 0 11.4286C0 13.8786 1.00365 16.1357 2.70486 18C1.75104 20.1571 0.177951 21.8714 0.156597 21.8929C0 22.0571 -0.0427083 22.3 0.0498264 22.5143C0.142361 22.7286 0.341667 22.8571 0.569444 22.8571C3.17465 22.8571 5.33142 21.9786 6.88316 21.0714C9.17517 22.1929 11.8872 22.8571 14.8056 22.8571C22.9842 22.8571 29.6111 17.7429 29.6111 11.4286ZM38.2951 27.1429C39.9964 25.2857 41 23.0214 41 20.5714C41 15.7929 37.1918 11.7 31.7964 9.99286C31.8604 10.4643 31.8889 10.9429 31.8889 11.4286C31.8889 18.9929 24.2227 25.1429 14.8056 25.1429C14.0368 25.1429 13.2894 25.0857 12.5491 25.0071C14.7913 29.1143 20.0587 32 26.1944 32C29.1128 32 31.8248 31.3429 34.1168 30.2143C35.6686 31.1214 37.8253 32 40.4306 32C40.6583 32 40.8648 31.8643 40.9502 31.6571C41.0427 31.45 41 31.2071 40.8434 31.0357C40.822 31.0143 39.249 29.3071 38.2951 27.1429Z" />
   </symbol>
   <symbol id="telephone">
      <path
         d="M36.9163 26.8521L28.6037 23.2896C28.2486 23.1382 27.8539 23.1064 27.4791 23.1987C27.1043 23.2911 26.7696 23.5027 26.5255 23.8017L22.8442 28.2994C17.0667 25.5754 12.4172 20.9259 9.69314 15.1484L14.1909 11.4671C14.4905 11.2234 14.7025 10.8887 14.7949 10.5137C14.8874 10.1388 14.8551 9.7439 14.703 9.38891L11.1404 1.07626C10.9735 0.693588 10.6783 0.381149 10.3057 0.192818C9.93312 0.00448671 9.50648 -0.0479317 9.09938 0.0446013L1.38049 1.82588C0.987994 1.91652 0.637806 2.13752 0.387084 2.45281C0.136361 2.7681 -9.04156e-05 3.15906 4.49492e-08 3.56189C4.49492e-08 22.5993 15.4303 38 34.4381 38C34.8411 38.0003 35.2322 37.8639 35.5476 37.6131C35.8631 37.3624 36.0842 37.0121 36.1748 36.6195L37.9561 28.9006C38.0481 28.4915 37.9945 28.0632 37.8047 27.6893C37.615 27.3154 37.3008 27.0194 36.9163 26.8521Z"
         fill="white" />
   </symbol>
   <symbol id="twitter">
      <path
         d="M32.2996 7.22732C32.3224 7.54449 32.3224 7.86173 32.3224 8.1789C32.3224 17.8531 24.8986 29 11.33 29C7.14975 29 3.26652 27.7992 0 25.7149C0.593932 25.7828 1.16494 25.8055 1.78173 25.8055C5.23092 25.8055 8.4061 24.65 10.9417 22.6789C7.69798 22.6109 4.97969 20.5039 4.04313 17.6039C4.50002 17.6718 4.95684 17.7172 5.43658 17.7172C6.099 17.7172 6.76149 17.6265 7.3782 17.468C3.99749 16.7882 1.46187 13.843 1.46187 10.2859V10.1953C2.44407 10.7391 3.5863 11.0789 4.79688 11.1242C2.80956 9.8101 1.50758 7.56716 1.50758 5.02964C1.50758 3.67029 1.87299 2.42419 2.51263 1.33668C6.14463 5.77731 11.6041 8.67726 17.7259 8.9945C17.6117 8.45075 17.5431 7.8844 17.5431 7.31798C17.5431 3.28512 20.8325 0 24.9213 0C27.0457 0 28.9644 0.883592 30.3122 2.31094C31.9797 1.99376 33.5786 1.38202 34.9949 0.543754C34.4467 2.24301 33.2817 3.67036 31.7513 4.57654C33.2361 4.41803 34.6752 4.01012 36 3.44377C34.9951 4.89372 33.7387 6.18507 32.2996 7.22732Z" />
   </symbol>
   <symbol id="facebook">
      <path
         d="M19.6238 21.9375L20.7128 14.8794H13.904V10.2992C13.904 8.36824 14.8552 6.48604 17.9046 6.48604H21V0.476836C21 0.476836 18.191 0 15.5053 0C9.89808 0 6.23292 3.38051 6.23292 9.50016V14.8794H0V21.9375H6.23292V39H13.904V21.9375H19.6238Z" />
   </symbol>
</svg>