<svg xmlns="http://www.w3.org/2000/svg">
   <symbol id="icon-arrow">
      <path
         d="M33 66C14.7702 66 0 51.2298 0 33C0 14.7702 14.7702 0 33 0C51.2298 0 66 14.7702 66 33C66 51.2298 51.2298 66 33 66ZM17.844 35.2621L35.8742 53.2923C37.125 54.5431 39.1476 54.5431 40.3851 53.2923L42.6472 51.0302C43.898 49.7794 43.898 47.7569 42.6472 46.5194L29.1278 33L42.6472 19.4806C43.898 18.2298 43.898 16.2073 42.6472 14.9698L40.3851 12.7077C39.1343 11.4569 37.1117 11.4569 35.8742 12.7077L17.844 30.7379C16.5931 31.9887 16.5931 34.0113 17.844 35.2621Z" />
   </symbol>
   <symbol id="icon-quotes">
      <path
         d="M60.7188 29.5H50.25V21.0714C50.25 16.4225 54.0057 12.6429 58.625 12.6429H59.6719C61.4123 12.6429 62.8125 11.2337 62.8125 9.48214V3.16071C62.8125 1.40915 61.4123 0 59.6719 0H58.625C47.057 0 37.6875 9.42946 37.6875 21.0714V52.6786C37.6875 56.1685 40.501 59 43.9688 59H60.7188C64.1865 59 67 56.1685 67 52.6786V35.8214C67 32.3315 64.1865 29.5 60.7188 29.5ZM23.0312 29.5H12.5625V21.0714C12.5625 16.4225 16.3182 12.6429 20.9375 12.6429H21.9844C23.7248 12.6429 25.125 11.2337 25.125 9.48214V3.16071C25.125 1.40915 23.7248 0 21.9844 0H20.9375C9.36953 0 0 9.42946 0 21.0714V52.6786C0 56.1685 2.81348 59 6.28125 59H23.0312C26.499 59 29.3125 56.1685 29.3125 52.6786V35.8214C29.3125 32.3315 26.499 29.5 23.0312 29.5Z"
         fill="#D9D9D9" />
   </symbol>
   <symbol id="icon-facebook">
      <path
         d="M23.3617 22.5L24.6581 15.2609H16.5524V10.5633C16.5524 8.58281 17.6847 6.65234 21.315 6.65234H25V0.489063C25 0.489063 21.656 0 18.4587 0C11.7834 0 7.42014 3.46719 7.42014 9.74375V15.2609H0V22.5H7.42014V40H16.5524V22.5H23.3617Z"
         fill="white" />
   </symbol>
   <symbol id="icon-twitter">
      <path
         d="M35.8884 7.47654C35.9138 7.80464 35.9138 8.13283 35.9138 8.46093C35.9138 18.4687 27.6651 30 12.5889 30C7.94417 30 3.62947 28.7578 0 26.6016C0.659924 26.6719 1.29438 26.6953 1.9797 26.6953C5.81213 26.6953 9.34011 25.5 12.1574 23.461C8.55331 23.3906 5.53299 21.211 4.49236 18.2109C5.00002 18.2812 5.5076 18.3281 6.04065 18.3281C6.77667 18.3281 7.51276 18.2343 8.198 18.0703C4.44166 17.3671 1.6243 14.3203 1.6243 10.6406V10.5469C2.71564 11.1094 3.98478 11.461 5.32986 11.5078C3.12173 10.1484 1.67508 7.82809 1.67508 5.20307C1.67508 3.79685 2.0811 2.50779 2.79181 1.38278C6.82737 5.97652 12.8934 8.97647 19.6954 9.30466C19.5685 8.74215 19.4923 8.15627 19.4923 7.57032C19.4923 3.3984 23.1472 0 27.6903 0C30.0507 0 32.1827 0.91406 33.6802 2.39062C35.533 2.06252 37.3096 1.42967 38.8833 0.562504C38.2741 2.32036 36.9797 3.79692 35.2792 4.73435C36.929 4.57037 38.528 4.1484 40 3.56253C38.8834 5.06246 37.4874 6.39835 35.8884 7.47654Z"
         fill="white" />
   </symbol>
   <symbol id="icon-instagram">
      <path
         d="M20.0045 9.7445C14.3291 9.7445 9.75125 14.3233 9.75125 20C9.75125 25.6767 14.3291 30.2555 20.0045 30.2555C25.6799 30.2555 30.2577 25.6767 30.2577 20C30.2577 14.3233 25.6799 9.7445 20.0045 9.7445ZM20.0045 26.6674C16.3369 26.6674 13.3385 23.6773 13.3385 20C13.3385 16.3227 16.3279 13.3326 20.0045 13.3326C23.681 13.3326 26.6704 16.3227 26.6704 20C26.6704 23.6773 23.6721 26.6674 20.0045 26.6674ZM33.0686 9.325C33.0686 10.6549 31.9978 11.7171 30.6771 11.7171C29.3475 11.7171 28.2856 10.646 28.2856 9.325C28.2856 8.00402 29.3564 6.93295 30.6771 6.93295C31.9978 6.93295 33.0686 8.00402 33.0686 9.325ZM39.8595 11.7528C39.7078 8.54848 38.976 5.71014 36.6291 3.37164C34.2911 1.03314 31.4534 0.301238 28.2499 0.140578C24.9481 -0.0468593 15.0519 -0.0468593 11.7501 0.140578C8.55549 0.292313 5.71779 1.02421 3.37089 3.36271C1.02398 5.70122 0.301171 8.53955 0.140547 11.7438C-0.0468489 15.0463 -0.0468489 24.9448 0.140547 28.2472C0.292248 31.4515 1.02398 34.2899 3.37089 36.6284C5.71779 38.9669 8.54657 39.6988 11.7501 39.8594C15.0519 40.0469 24.9481 40.0469 28.2499 39.8594C31.4534 39.7077 34.2911 38.9758 36.6291 36.6284C38.9671 34.2899 39.6988 31.4515 39.8595 28.2472C40.0468 24.9448 40.0468 15.0552 39.8595 11.7528ZM35.594 31.7907C34.8979 33.5401 33.5505 34.8879 31.7925 35.593C29.1601 36.6373 22.9136 36.3963 20.0045 36.3963C17.0954 36.3963 10.8399 36.6284 8.2164 35.593C6.46737 34.8968 5.11991 33.549 4.41495 31.7907C3.37089 29.1576 3.61182 22.9097 3.61182 20C3.61182 17.0903 3.37981 10.8334 4.41495 8.2093C5.11099 6.45989 6.45845 5.11213 8.2164 4.40701C10.8489 3.36271 17.0954 3.6037 20.0045 3.6037C22.9136 3.6037 29.169 3.37164 31.7925 4.40701C33.5416 5.1032 34.889 6.45096 35.594 8.2093C36.638 10.8424 36.3971 17.0903 36.3971 20C36.3971 22.9097 36.638 29.1666 35.594 31.7907Z"
         fill="white" />


   </symbol>
   <symbol id="icon-youtube">
      <path
         d="M39.1642 4.69398C38.7041 2.84633 37.3487 1.39117 35.6277 0.897344C32.5084 0 20 0 20 0C20 0 7.49171 0 4.37226 0.897344C2.65129 1.39125 1.29587 2.84633 0.835839 4.69398C0 8.04297 0 15.0303 0 15.0303C0 15.0303 0 22.0177 0.835839 25.3666C1.29587 27.2143 2.65129 28.6088 4.37226 29.1027C7.49171 30 20 30 20 30C20 30 32.5083 30 35.6277 29.1027C37.3487 28.6088 38.7041 27.2143 39.1642 25.3666C40 22.0177 40 15.0303 40 15.0303C40 15.0303 40 8.04297 39.1642 4.69398ZM15.9091 21.3743V8.68633L26.3636 15.0305L15.9091 21.3743Z"
         fill="white" />
   </symbol>
</svg>